<?xml version="1.0" encoding="utf-8"?>
<!-- Generator: Adobe Illustrator 16.0.3, SVG Export Plug-In . SVG Version: 6.00 Build 0)  -->
<!DOCTYPE svg PUBLIC "-//W3C//DTD SVG 1.1//EN" "http://www.w3.org/Graphics/SVG/1.1/DTD/svg11.dtd">
<svg version="1.1" xmlns="http://www.w3.org/2000/svg" xmlns:xlink="http://www.w3.org/1999/xlink" x="0px" y="0px" width="373.5px"
	 height="105.5px" viewBox="0 0 373.5 105.5" enable-background="new 0 0 373.5 105.5" xml:space="preserve">
<g id="Layer_3" display="none">
	<rect display="inline" fill="#F70000" stroke="#FFFFFF" stroke-width="2" stroke-miterlimit="10" width="373.5" height="105.5"/>
</g>
<g id="Layer_1" display="none">
	<g display="inline">
		<text transform="matrix(1 0 0 1 3 65)" fill="#FFFFFF" font-family="'Verdana'" font-size="52">Série    ouvoir</text>
		<text transform="matrix(1 0 0 1 168.3335 82.334)" fill="#FFFFFF" font-family="'CurlzMT'" font-size="76">P</text>
		
			<text transform="matrix(1 0 0 1 168.3335 82.334)" fill="none" stroke="#FFFFFF" stroke-width="2" stroke-miterlimit="10" font-family="'CurlzMT'" font-size="76">P</text>
	</g>
	<circle display="inline" fill="#FFFFFF" stroke="#FFFFFF" stroke-width="2" stroke-miterlimit="10" cx="190.5" cy="13.5" r="8.5"/>
</g>
<g id="Layer_1_copy">
	<g>
		<g>
			<g enable-background="new    ">
				<path fill="#FFFFFF" stroke="#FFFFFF" stroke-width="2" stroke-miterlimit="10" d="M188.558,31.643
					c5.938,0,10.892,1.473,14.862,4.416c3.971,2.944,5.956,6.408,5.956,10.391c0,4.948-1.583,9.203-4.75,12.766
					c-3.167,3.563-6.754,5.344-10.762,5.344c-1.287,0-2.443-0.525-3.47-1.577c-1.027-1.051-1.54-2.22-1.54-3.507
					c0-0.791,0.674-1.552,2.022-2.282c1.348-0.729,2.554-1.095,3.618-1.095c1.113,0,1.67,0.735,1.67,2.206
					c0,0.417-0.458,1.018-1.373,1.802c-0.099-0.146-0.353-0.572-0.761-1.278s-0.872-1.06-1.392-1.06c-1.113,0-1.67,0.885-1.67,2.654
					c0,0.885,0.34,1.61,1.021,2.176c0.68,0.565,1.515,0.848,2.505,0.848c2.598,0,4.88-1.408,6.847-4.226
					c1.967-2.816,2.95-6.14,2.95-9.97c0-4.497-1.324-8.203-3.971-11.119c-2.647-2.915-6.618-4.497-11.912-4.744
					c-0.52,5.394-0.779,13.756-0.779,25.086c0,2.944,0.297,6.971,0.891,12.079c0.594,5.109,0.928,8.702,1.002,10.78l9.277,0.779
					l-0.52,2.189c-2.722-0.471-6.346-0.848-10.873-1.132c-4.527-0.285-8.078-0.39-10.65-0.315l-0.223-2.189
					c2.202-0.024,4.496,0.063,6.884,0.26c2.387,0.198,3.791,0.26,4.212,0.186c-0.148-2.201-0.557-5.665-1.225-10.391
					c-1.559-10.984-2.338-20.596-2.338-28.834c0-4.576,0.049-7.434,0.148-8.572c-3.761,0.148-7.032,1.015-9.815,2.598
					c-2.783,1.584-4.175,3.525-4.175,5.826c0,1.089,0.478,1.961,1.435,2.616c0.956,0.656,2.056,0.983,3.297,0.983
					c3.055,0,4.583-0.557,4.583-1.67c0-0.297-0.159-0.55-0.477-0.761c-0.318-0.21-0.655-0.315-1.011-0.315
					c-0.839,0-1.259,0.458-1.259,1.373c-0.742-0.123-1.113-0.568-1.113-1.336c0-1.188,0.717-1.781,2.152-1.781
					c0.668,0,1.305,0.26,1.911,0.779c0.606,0.52,0.909,1.039,0.909,1.559c0,1.262-0.582,2.338-1.744,3.229
					c-1.163,0.891-2.585,1.336-4.268,1.336c-1.806,0-3.346-0.538-4.62-1.614c-1.274-1.076-1.911-2.381-1.911-3.915
					c0-1.979,1.15-4.001,3.451-6.067c2.301-2.065,6.543-3.519,12.729-4.36c0-0.989,0.024-3.5,0.074-7.533
					c3.315,0.272,5.195,0.408,5.641,0.408C189.065,28.551,188.583,30.876,188.558,31.643z"/>
			</g>
		</g>
		<circle fill="#FFFFFF" stroke="#FFFFFF" stroke-width="2" stroke-miterlimit="10" cx="190.5" cy="13.5" r="8.5"/>
	</g>
</g>
<g id="Layer_4">
	<g enable-background="new    ">
		<path fill="#FFFFFF" d="M35.957,54.209c0,1.473-0.343,2.929-1.028,4.367s-1.646,2.657-2.882,3.656
			c-1.354,1.083-2.933,1.93-4.735,2.539s-3.974,0.914-6.513,0.914c-2.726,0-5.176-0.254-7.351-0.762
			c-2.175-0.508-4.389-1.261-6.64-2.26v-6.297h0.355c1.913,1.591,4.122,2.818,6.627,3.682c2.505,0.863,4.858,1.295,7.059,1.295
			c3.114,0,5.539-0.584,7.274-1.752c1.735-1.168,2.603-2.726,2.603-4.672c0-1.676-0.411-2.911-1.231-3.707
			c-0.821-0.796-2.069-1.413-3.745-1.854c-1.27-0.339-2.645-0.618-4.126-0.838c-1.481-0.22-3.051-0.499-4.71-0.838
			c-3.352-0.711-5.836-1.926-7.452-3.644c-1.617-1.718-2.425-3.957-2.425-6.716c0-3.165,1.337-5.76,4.012-7.782
			c2.674-2.022,6.068-3.034,10.182-3.034c2.657,0,5.095,0.254,7.313,0.762c2.217,0.508,4.181,1.134,5.891,1.879v5.941h-0.355
			c-1.439-1.219-3.331-2.23-5.675-3.034c-2.345-0.804-4.744-1.206-7.198-1.206c-2.691,0-4.854,0.559-6.487,1.676
			c-1.634,1.117-2.45,2.556-2.45,4.316c0,1.574,0.406,2.81,1.219,3.707s2.243,1.583,4.291,2.057
			c1.083,0.237,2.624,0.524,4.621,0.863c1.997,0.339,3.69,0.686,5.078,1.041c2.81,0.745,4.926,1.87,6.348,3.377
			S35.957,51.501,35.957,54.209z"/>
		<path fill="#FFFFFF" d="M67.391,51.314H46.494c0,1.743,0.262,3.263,0.787,4.558c0.524,1.295,1.244,2.357,2.158,3.187
			c0.88,0.813,1.925,1.422,3.136,1.828c1.21,0.406,2.543,0.609,3.999,0.609c1.93,0,3.872-0.385,5.827-1.155s3.347-1.527,4.177-2.272
			h0.254v5.205c-1.608,0.677-3.25,1.244-4.926,1.701s-3.437,0.686-5.281,0.686c-4.706,0-8.379-1.273-11.02-3.821
			s-3.961-6.166-3.961-10.854c0-4.638,1.265-8.319,3.796-11.045c2.53-2.726,5.861-4.088,9.991-4.088
			c3.825,0,6.775,1.117,8.849,3.352c2.073,2.234,3.11,5.408,3.11,9.521V51.314z M62.744,47.658
			c-0.017-2.505-0.647-4.443-1.892-5.814s-3.136-2.057-5.675-2.057c-2.556,0-4.592,0.753-6.106,2.26
			c-1.515,1.507-2.374,3.377-2.577,5.611H62.744z M63.328,22.445l-6.932,9.496h-3.783l4.545-9.496H63.328z"/>
		<path fill="#FFFFFF" d="M92.324,41.844H92.07c-0.711-0.169-1.401-0.292-2.069-0.368c-0.669-0.076-1.46-0.114-2.374-0.114
			c-1.473,0-2.895,0.326-4.266,0.978s-2.691,1.494-3.961,2.526V65h-4.773V36.639H79.4v4.189c1.896-1.523,3.567-2.603,5.015-3.237
			s2.924-0.952,4.431-0.952c0.829,0,1.43,0.021,1.803,0.063c0.372,0.042,0.931,0.123,1.676,0.241V41.844z"/>
		<path fill="#FFFFFF" d="M101.947,31.891h-5.383v-4.951h5.383V31.891z M101.643,65h-4.773V36.639h4.773V65z"/>
		<path fill="#FFFFFF" d="M134.828,51.314h-20.896c0,1.743,0.262,3.263,0.787,4.558c0.524,1.295,1.244,2.357,2.158,3.187
			c0.88,0.813,1.925,1.422,3.136,1.828c1.21,0.406,2.543,0.609,3.999,0.609c1.93,0,3.872-0.385,5.827-1.155s3.347-1.527,4.177-2.272
			h0.254v5.205c-1.608,0.677-3.25,1.244-4.926,1.701s-3.437,0.686-5.281,0.686c-4.706,0-8.379-1.273-11.02-3.821
			s-3.961-6.166-3.961-10.854c0-4.638,1.265-8.319,3.796-11.045c2.53-2.726,5.861-4.088,9.991-4.088
			c3.825,0,6.775,1.117,8.849,3.352c2.073,2.234,3.11,5.408,3.11,9.521V51.314z M130.182,47.658
			c-0.017-2.505-0.647-4.443-1.892-5.814s-3.136-2.057-5.675-2.057c-2.556,0-4.592,0.753-6.106,2.26
			c-1.515,1.507-2.374,3.377-2.577,5.611H130.182z"/>
		<path fill="#FFFFFF" d="M239.361,50.832c0,4.621-1.186,8.269-3.555,10.943c-2.37,2.675-5.544,4.012-9.521,4.012
			c-4.012,0-7.198-1.337-9.56-4.012s-3.542-6.322-3.542-10.943s1.181-8.273,3.542-10.956s5.548-4.024,9.56-4.024
			c3.978,0,7.151,1.342,9.521,4.024C238.176,42.559,239.361,46.211,239.361,50.832z M234.436,50.832c0-3.673-0.72-6.402-2.158-8.188
			c-1.439-1.786-3.437-2.679-5.992-2.679c-2.59,0-4.6,0.893-6.03,2.679c-1.431,1.786-2.146,4.516-2.146,8.188
			c0,3.555,0.719,6.25,2.158,8.087c1.438,1.837,3.444,2.755,6.018,2.755c2.539,0,4.532-0.91,5.979-2.729
			S234.436,54.421,234.436,50.832z"/>
		<path fill="#FFFFFF" d="M270.262,65h-4.773v-3.148c-1.608,1.27-3.148,2.243-4.621,2.92s-3.098,1.016-4.875,1.016
			c-2.979,0-5.299-0.91-6.957-2.729c-1.659-1.819-2.488-4.49-2.488-8.011V36.639h4.773v16.148c0,1.438,0.067,2.67,0.203,3.694
			c0.135,1.024,0.423,1.9,0.863,2.628c0.457,0.745,1.049,1.286,1.777,1.625c0.728,0.339,1.785,0.508,3.174,0.508
			c1.235,0,2.586-0.321,4.05-0.965s2.831-1.464,4.101-2.463V36.639h4.773V65z"/>
		<path fill="#FFFFFF" d="M304.184,36.639L292.707,65h-4.799l-11.4-28.361h5.18l8.785,22.572l8.709-22.572H304.184z"/>
		<path fill="#FFFFFF" d="M334.145,50.832c0,4.621-1.185,8.269-3.555,10.943s-5.544,4.012-9.521,4.012
			c-4.012,0-7.198-1.337-9.56-4.012s-3.542-6.322-3.542-10.943s1.181-8.273,3.542-10.956s5.548-4.024,9.56-4.024
			c3.978,0,7.151,1.342,9.521,4.024S334.145,46.211,334.145,50.832z M329.219,50.832c0-3.673-0.72-6.402-2.158-8.188
			s-3.437-2.679-5.992-2.679c-2.59,0-4.6,0.893-6.03,2.679s-2.146,4.516-2.146,8.188c0,3.555,0.72,6.25,2.158,8.087
			s3.444,2.755,6.018,2.755c2.539,0,4.532-0.91,5.979-2.729S329.219,54.421,329.219,50.832z"/>
		<path fill="#FFFFFF" d="M346.662,31.891h-5.383v-4.951h5.383V31.891z M346.357,65h-4.773V36.639h4.773V65z"/>
		<path fill="#FFFFFF" d="M373.5,41.844h-0.254c-0.711-0.169-1.4-0.292-2.069-0.368s-1.46-0.114-2.374-0.114
			c-1.473,0-2.895,0.326-4.266,0.978s-2.691,1.494-3.961,2.526V65h-4.773V36.639h4.773v4.189c1.896-1.523,3.567-2.603,5.015-3.237
			s2.924-0.952,4.431-0.952c0.829,0,1.431,0.021,1.803,0.063s0.931,0.123,1.676,0.241V41.844z"/>
	</g>
</g>
</svg>
